<svg width="75" height="75" viewBox="0 0 75 75" fill="none" xmlns="http://www.w3.org/2000/svg">
<path d="M0 37.5C0 16.7871 16.7871 0 37.5 0C58.2129 0 75 16.7871 75 37.5C75 58.2129 58.2129 75 37.5 75C16.7871 75 0 58.2129 0 37.5ZM54.4629 31.0254C56.0596 29.4287 56.0596 26.8213 54.4629 25.2246C52.8662 23.6279 50.2588 23.6279 48.6621 25.2246L32.8125 41.0742L26.3379 34.5996C24.7412 33.0029 22.1338 33.0029 20.5371 34.5996C18.9404 36.1963 18.9404 38.8037 20.5371 40.4004L29.9121 49.7754C31.5088 51.3721 34.1162 51.3721 35.7129 49.7754L54.4629 31.0254Z" fill="#D5DBEC"/>
</svg>
