<svg width="75" height="57" viewBox="0 0 75 57" fill="none" xmlns="http://www.w3.org/2000/svg">
<path d="M67.9688 0C71.8506 0 75 3.14795 75 7.03125C75 9.24316 73.96 11.3232 72.1875 12.6562L40.3125 36.5625C38.6426 37.8076 36.3574 37.8076 34.6875 36.5625L2.8125 12.6562C1.04194 11.3232 0 9.24316 0 7.03125C0 3.14795 3.14795 0 7.03125 0H67.9688ZM31.875 40.3125C35.2148 42.8174 39.7852 42.8174 43.125 40.3125L75 16.4062V46.875C75 52.0459 70.7959 56.25 65.625 56.25H9.375C4.19678 56.25 0 52.0459 0 46.875V16.4062L31.875 40.3125Z" fill="#D5DBEC"/>
</svg>
