<svg width="60" height="60" viewBox="0 0 60 60" fill="none" xmlns="http://www.w3.org/2000/svg">
<path d="M55.7143 0.25H4.27232C1.91518 0.25 0 2.17578 0 4.53984V55.4602C0 57.8242 1.91518 59.75 4.27232 59.75H55.7143C58.0714 59.75 60 57.8242 60 55.4602V4.53984C60 2.17578 58.0714 0.25 55.7143 0.25ZM18.1339 51.25H9.24107V22.8547H18.1473V51.25H18.1339ZM13.6875 18.9766C10.8348 18.9766 8.53125 16.6789 8.53125 13.8633C8.53125 11.0477 10.8348 8.75 13.6875 8.75C16.5268 8.75 18.8437 11.0477 18.8437 13.8633C18.8437 16.6922 16.5402 18.9766 13.6875 18.9766ZM51.4687 51.25H42.5759V37.4375C42.5759 34.1437 42.5089 29.907 37.9554 29.907C33.3214 29.907 32.6116 33.493 32.6116 37.1984V51.25H23.7188V22.8547H32.25V26.7328H32.3705C33.5625 24.5016 36.4688 22.1508 40.7946 22.1508C49.7946 22.1508 51.4687 28.0344 51.4687 35.6844V51.25Z" fill="#0A0A0A"/>
</svg>
